<?xml version="1.0" encoding="utf-8"?>
<!-- Svg Vector Icons : http://www.onlinewebfonts.com/icon -->
<!DOCTYPE svg PUBLIC "-//W3C//DTD SVG 1.1//EN" "http://www.w3.org/Graphics/SVG/1.1/DTD/svg11.dtd">
<svg version="1.1" xmlns="http://www.w3.org/2000/svg" xmlns:xlink="http://www.w3.org/1999/xlink" x="0px" y="0px" viewBox="0 0 1000 1000" enable-background="new 0 0 1000 1000" xml:space="preserve">
<metadata> Svg Vector Icons : http://www.onlinewebfonts.com/icon </metadata>
<g><g><g><path d="M229.4,475.8c-37.6,0-68.1,30.5-68.1,68.1c0,2.9,0.2,5.8,0.6,8.6c4.2,33.6,32.8,59.6,67.5,59.6c35.7,0,64.9-27.4,67.9-62.3c0.2-1.9,0.3-3.9,0.3-5.8C297.6,506.3,267,475.8,229.4,475.8z M195.3,518.2l13.9,13.9c-1.1,1.9-1.9,3.9-2.5,6h-19.6C188.1,530.7,191,524,195.3,518.2z M187,549.9h19.7c0.6,2.1,1.4,4.1,2.5,5.9l-13.9,13.9C191,564.1,188.1,557.3,187,549.9z M223.5,586.2c-7.4-1-14.1-3.9-19.8-8.2l13.9-13.9c1.8,1.1,3.8,1.9,5.9,2.4V586.2z M223.5,521.2c-2.1,0.6-4.1,1.4-6,2.5l-13.9-13.9c5.7-4.3,12.5-7.2,19.9-8.2L223.5,521.2L223.5,521.2z M235.3,501.7c7.5,1,14.2,3.9,19.9,8.2l-13.9,13.9c-1.9-1.1-3.9-1.9-6-2.5L235.3,501.7L235.3,501.7z M235.3,586.2v-19.6c2.1-0.6,4.1-1.3,5.9-2.4l13.8,13.9C249.4,582.4,242.7,585.2,235.3,586.2z M263.5,569.8l-14-14c1.1-1.8,2-3.8,2.5-5.9h19.6C270.6,557.3,267.8,564.2,263.5,569.8z M252.1,538.1c-0.5-2.1-1.4-4.1-2.5-6l13.9-13.9c4.3,5.7,7.2,12.5,8.2,19.9L252.1,538.1L252.1,538.1z"/><path d="M784.4,543.9c0-30.3,16.3-56.7,40.4-71.4l-160.5-71.1H563.5c-6,0-10.9,4.9-10.9,10.9v14.3c0,6,4.8,10.9,10.9,10.9h7.1v9.9h-18.3c-5.7,0-10.9,3.7-12.7,9.1l-1.5,4.4c-33.3-2.7-49.1,22.8-65.7,22.8l-11.2-13.5c-6.7-8.1-16.9-12.3-27.4-11.4c-3.2,0.3-6.6,0.9-10,2.1l-6.3,22.8c0,0-57.2-3.3-131.4-0.7c16.4,15.2,26.7,36.9,26.7,61c0,2.4,0.4,52.8,0.4,52.8h490.1c-9.7-11.8-16.2-26.3-18.3-42.3C784.6,550.7,784.4,547.2,784.4,543.9z"/><path d="M145.9,543.9c0-19.1,6.5-36.7,17.4-50.8c-57.4,8-113.2,21.3-153.3,43.3c0,11.7,51.3,0.2,51.3,24.3H21.7c-4,0-7.2,3.2-7.2,7.2v21.6c0,4,3.2,7.2,7.2,7.2h98.9c4,0,7.2-3.2,7.2-7.2v-33.3H147c-0.1-0.6-0.2-1.2-0.3-1.8C146.2,550.7,145.9,547.2,145.9,543.9z"/><path d="M972,387.9H866.3c-10,0-18,8.1-18,18v23.6c0,4.8,1.9,9.3,5.3,12.7l18.4,18.4c44.1,2.2,79.4,38.6,79.4,83.3c0,1.1-0.1,2.2-0.2,3.3H990V406C990,396,982,387.9,972,387.9z"/><path d="M870.8,475.8c-37.6,0-68.1,30.5-68.1,68.1c0,2.9,0.2,5.8,0.6,8.6c4.2,33.6,32.8,59.6,67.5,59.6c35.7,0,64.9-27.4,67.9-62.3c0.2-1.9,0.3-3.9,0.3-5.8C939,506.3,908.5,475.8,870.8,475.8z M836.7,518.2l13.9,13.9c-1.1,1.9-1.9,3.9-2.5,6h-19.6C829.5,530.7,832.4,524,836.7,518.2z M828.5,549.9h19.7c0.6,2.1,1.4,4.1,2.5,5.9l-13.9,13.9C832.4,564.1,829.5,557.3,828.5,549.9z M864.9,586.2c-7.4-1-14.1-3.9-19.8-8.2l13.8-13.8c1.8,1,3.8,1.8,5.9,2.4V586.2L864.9,586.2z M864.9,521.2c-2.1,0.6-4.1,1.4-6,2.5l-13.8-13.9c5.7-4.3,12.5-7.2,19.9-8.2L864.9,521.2L864.9,521.2L864.9,521.2z M876.7,501.7c7.5,1,14.2,3.9,19.9,8.2l-13.9,13.9c-1.9-1.1-3.9-1.9-6-2.5L876.7,501.7L876.7,501.7z M876.7,586.2v-19.6c2.1-0.6,4.1-1.3,5.9-2.4l13.9,13.9C890.8,582.4,884.1,585.2,876.7,586.2z M905,569.8l-14-14c1.1-1.8,2-3.8,2.5-5.9h19.6C912.1,557.3,909.3,564.2,905,569.8z M893.5,538.1c-0.5-2.1-1.4-4.1-2.5-6l13.9-13.9c4.3,5.7,7.2,12.5,8.2,19.9L893.5,538.1L893.5,538.1z"/></g></g><g></g><g></g><g></g><g></g><g></g><g></g><g></g><g></g><g></g><g></g><g></g><g></g><g></g><g></g><g></g></g>
</svg>